<svg xmlns="http://www.w3.org/2000/svg" xmlns:xlink="http://www.w3.org/1999/xlink" width="158" zoomAndPan="magnify" viewBox="0 0 118.5 37.5" height="50" preserveAspectRatio="xMidYMid meet" version="1.0"><defs><g/><clipPath id="9997fc31a3"><path d="M 4.25 3.714844 L 33.980469 3.714844 L 33.980469 33.445312 L 4.25 33.445312 Z M 4.25 3.714844 " clip-rule="nonzero"/></clipPath></defs><path fill="#545454" d="M 13.632812 12.773438 C 13.632812 12.761719 13.644531 12.761719 13.65625 12.761719 C 13.804688 12.710938 13.964844 12.671875 14.132812 12.636719 C 16.125 12.113281 17.519531 10.738281 18.28125 9.816406 C 17.074219 10.703125 14.90625 12.136719 13.425781 12.136719 C 12.601562 12.136719 11.003906 12.261719 9.625 12.738281 C 8.839844 12.996094 8.132812 13.371094 7.65625 13.90625 C 7.210938 14.417969 6.996094 15.078125 7.191406 15.941406 C 7.292969 16.386719 7.511719 16.898438 7.875 17.476562 C 7.953125 16.464844 8.511719 15.597656 9.367188 14.871094 C 10.457031 13.929688 12.027344 13.234375 13.632812 12.773438 Z M 13.804688 13.0625 C 13.65625 13.3125 13.269531 13.6875 12.769531 14.175781 C 11.871094 15.050781 10.628906 16.269531 10.050781 17.402344 C 9.566406 18.363281 9.566406 19.269531 10.734375 19.859375 C 10.8125 19.90625 10.847656 20.007812 10.796875 20.085938 C 10.761719 20.175781 10.660156 20.199219 10.582031 20.164062 C 9.183594 19.46875 9.171875 18.378906 9.75 17.261719 C 10.351562 16.078125 11.617188 14.828125 12.539062 13.949219 C 12.8125 13.675781 13.050781 13.4375 13.222656 13.253906 C 11.835938 13.699219 10.515625 14.324219 9.570312 15.132812 C 8.648438 15.929688 8.089844 16.886719 8.199219 18.023438 C 8.308594 19.082031 8.644531 19.929688 9.144531 20.589844 C 9.714844 21.339844 10.488281 21.851562 11.347656 22.195312 C 11.4375 22.21875 11.472656 22.320312 11.449219 22.410156 C 11.414062 22.5 11.3125 22.535156 11.222656 22.5 C 10.300781 22.136719 9.492188 21.589844 8.882812 20.792969 C 8.359375 20.097656 7.996094 19.210938 7.871094 18.113281 C 7.3125 17.328125 6.984375 16.632812 6.847656 16.03125 C 6.621094 15.042969 6.871094 14.289062 7.382812 13.699219 C 7.894531 13.128906 8.65625 12.710938 9.488281 12.425781 C 10.921875 11.941406 12.554688 11.816406 13.398438 11.816406 C 15.390625 11.816406 18.804688 8.996094 18.929688 8.890625 C 18.976562 8.839844 19.066406 8.828125 19.132812 8.867188 C 19.210938 8.914062 19.234375 9.015625 19.191406 9.089844 C 19.179688 9.101562 17.449219 12.128906 14.195312 12.96875 C 14.078125 12.984375 13.941406 13.023438 13.804688 13.0625 Z M 13.804688 13.0625 " fill-opacity="1" fill-rule="nonzero"/><path fill="#545454" d="M 8.820312 15.886719 C 8.808594 15.976562 8.734375 16.035156 8.636719 16.023438 C 8.546875 16.011719 8.488281 15.933594 8.488281 15.839844 C 8.5 15.828125 8.976562 11.589844 11.332031 10.804688 C 11.941406 10.601562 12.652344 10.464844 13.386719 10.316406 C 15.390625 9.929688 17.6875 9.496094 18.984375 7.511719 C 19.03125 7.433594 19.132812 7.410156 19.210938 7.460938 C 19.285156 7.515625 19.308594 7.621094 19.257812 7.699219 C 17.882812 9.792969 15.515625 10.257812 13.449219 10.65625 C 12.722656 10.792969 12.027344 10.929688 11.445312 11.117188 C 9.285156 11.839844 8.820312 15.875 8.820312 15.886719 Z M 8.820312 15.886719 " fill-opacity="1" fill-rule="nonzero"/><path fill="#545454" d="M 11.367188 10.792969 C 11.457031 10.78125 11.539062 10.851562 11.550781 10.941406 C 11.5625 11.03125 11.503906 11.113281 11.402344 11.125 C 11.390625 11.125 6.019531 11.863281 6.179688 15.164062 C 6.34375 18.515625 8.601562 19.6875 8.613281 19.6875 C 8.691406 19.722656 8.726562 19.824219 8.671875 19.914062 C 8.636719 19.992188 8.535156 20.027344 8.445312 19.972656 C 8.433594 19.972656 6.015625 18.722656 5.84375 15.175781 C 5.671875 11.566406 11.335938 10.804688 11.367188 10.792969 Z M 11.367188 10.792969 " fill-opacity="1" fill-rule="nonzero"/><path fill="#545454" d="M 24.574219 12.761719 C 24.585938 12.761719 24.585938 12.761719 24.597656 12.773438 C 26.203125 13.234375 27.773438 13.929688 28.859375 14.863281 C 29.722656 15.589844 30.28125 16.457031 30.351562 17.46875 C 30.714844 16.898438 30.933594 16.386719 31.035156 15.933594 C 31.238281 15.074219 31.023438 14.414062 30.570312 13.902344 C 30.097656 13.367188 29.390625 12.992188 28.605469 12.730469 C 27.21875 12.253906 25.625 12.128906 24.804688 12.128906 C 23.324219 12.128906 21.152344 10.695312 19.945312 9.8125 C 20.707031 10.734375 22.105469 12.105469 24.097656 12.628906 C 24.257812 12.675781 24.425781 12.710938 24.574219 12.761719 Z M 24.984375 13.234375 C 25.167969 13.421875 25.40625 13.65625 25.679688 13.929688 C 26.601562 14.816406 27.871094 16.058594 28.46875 17.261719 C 29.039062 18.386719 29.027344 19.457031 27.636719 20.152344 C 27.546875 20.199219 27.449219 20.164062 27.410156 20.074219 C 27.375 19.996094 27.398438 19.902344 27.484375 19.859375 C 28.644531 19.257812 28.65625 18.367188 28.183594 17.402344 C 27.597656 16.257812 26.351562 15.039062 25.453125 14.164062 C 24.953125 13.675781 24.566406 13.300781 24.417969 13.050781 C 24.28125 13.015625 24.144531 12.972656 24.007812 12.9375 C 20.753906 12.105469 19.023438 9.074219 19.011719 9.0625 C 18.976562 8.984375 19 8.890625 19.074219 8.835938 C 19.132812 8.800781 19.222656 8.8125 19.273438 8.859375 C 19.398438 8.972656 22.8125 11.785156 24.804688 11.785156 C 25.636719 11.785156 27.285156 11.910156 28.71875 12.398438 C 29.550781 12.683594 30.3125 13.09375 30.820312 13.671875 C 31.332031 14.253906 31.582031 15.015625 31.355469 16 C 31.21875 16.601562 30.894531 17.296875 30.335938 18.082031 C 30.210938 19.152344 29.859375 20.027344 29.347656 20.722656 C 28.765625 21.507812 27.972656 22.066406 27.082031 22.429688 C 26.992188 22.464844 26.898438 22.429688 26.867188 22.339844 C 26.832031 22.25 26.867188 22.15625 26.957031 22.113281 C 27.789062 21.773438 28.539062 21.25 29.085938 20.519531 C 29.574219 19.859375 29.894531 19.039062 30.007812 17.992188 C 30.121094 16.855469 29.5625 15.898438 28.632812 15.101562 C 27.699219 14.304688 26.378906 13.683594 24.984375 13.234375 Z M 24.984375 13.234375 " fill-opacity="1" fill-rule="nonzero"/><path fill="#545454" d="M 29.726562 15.839844 C 29.738281 15.941406 29.679688 16.011719 29.589844 16.023438 C 29.488281 16.035156 29.417969 15.976562 29.40625 15.886719 C 29.40625 15.875 28.941406 11.839844 26.789062 11.113281 C 26.207031 10.929688 25.507812 10.792969 24.785156 10.648438 C 22.707031 10.25 20.351562 9.789062 18.976562 7.695312 C 18.929688 7.617188 18.941406 7.511719 19.023438 7.457031 C 19.101562 7.410156 19.199219 7.433594 19.25 7.503906 C 20.546875 9.484375 22.84375 9.925781 24.847656 10.308594 C 25.582031 10.460938 26.277344 10.597656 26.902344 10.796875 C 29.257812 11.589844 29.726562 15.828125 29.726562 15.839844 Z M 29.726562 15.839844 " fill-opacity="1" fill-rule="nonzero"/><path fill="#545454" d="M 26.828125 11.132812 C 26.726562 11.117188 26.664062 11.03125 26.675781 10.945312 C 26.691406 10.859375 26.777344 10.785156 26.863281 10.796875 C 26.886719 10.808594 32.558594 11.570312 32.378906 15.1875 C 32.207031 18.734375 29.777344 19.984375 29.777344 19.984375 C 29.6875 20.03125 29.589844 19.996094 29.550781 19.925781 C 29.503906 19.835938 29.539062 19.742188 29.609375 19.699219 C 29.621094 19.699219 31.875 18.527344 32.039062 15.175781 C 32.207031 11.863281 26.839844 11.132812 26.828125 11.132812 Z M 26.828125 11.132812 " fill-opacity="1" fill-rule="nonzero"/><path fill="#545454" d="M 23.230469 28.261719 C 26.902344 24.507812 27.527344 21.996094 28.199219 16.84375 L 27.859375 16.671875 C 27.859375 16.671875 27.847656 16.796875 27.8125 17.011719 C 27.460938 22.867188 25.332031 26.15625 21.195312 29.625 C 21.046875 29.746094 20.921875 29.847656 20.808594 29.945312 C 20.558594 30.171875 20.285156 30.332031 20 30.445312 C 19.714844 30.558594 19.417969 30.617188 19.113281 30.617188 C 18.8125 30.617188 18.515625 30.558594 18.226562 30.445312 C 17.941406 30.332031 17.667969 30.171875 17.417969 29.945312 C 17.308594 29.84375 17.183594 29.742188 17.03125 29.625 C 12.894531 26.15625 10.765625 22.867188 10.402344 17.011719 C 10.378906 16.796875 10.367188 16.671875 10.367188 16.671875 L 10.027344 16.84375 C 10.699219 21.988281 11.324219 24.507812 15 28.261719 C 15.707031 28.945312 16.355469 29.492188 16.820312 29.878906 C 16.96875 30.003906 17.105469 30.117188 17.195312 30.1875 C 17.480469 30.4375 17.792969 30.621094 18.117188 30.746094 C 18.4375 30.871094 18.773438 30.929688 19.113281 30.949219 C 19.453125 30.9375 19.785156 30.871094 20.113281 30.746094 C 20.441406 30.621094 20.75 30.4375 21.035156 30.1875 C 21.125 30.109375 21.261719 30.003906 21.410156 29.878906 C 21.855469 29.5 22.515625 28.953125 23.230469 28.261719 Z M 23.230469 28.261719 " fill-opacity="1" fill-rule="nonzero"/><path fill="#545454" d="M 21.421875 25.574219 C 18.738281 26.484375 16.425781 25.632812 16.414062 25.621094 C 16.324219 25.597656 16.230469 25.644531 16.199219 25.734375 C 16.164062 25.824219 16.210938 25.90625 16.300781 25.949219 C 16.3125 25.949219 18.746094 26.835938 21.535156 25.902344 C 21.625 25.867188 21.660156 25.777344 21.636719 25.6875 C 21.613281 25.597656 21.503906 25.542969 21.421875 25.574219 Z M 21.421875 25.574219 " fill-opacity="1" fill-rule="nonzero"/><path fill="#545454" d="M 19.898438 27.304688 L 18.292969 27.304688 C 18.203125 27.304688 18.132812 27.382812 18.132812 27.464844 C 18.132812 27.566406 18.210938 27.636719 18.292969 27.636719 L 19.898438 27.636719 C 20 27.636719 20.070312 27.558594 20.070312 27.464844 C 20.070312 27.375 20 27.304688 19.898438 27.304688 Z M 19.898438 27.304688 " fill-opacity="1" fill-rule="nonzero"/><path fill="#545454" d="M 16.746094 16.351562 C 18.269531 18.546875 18.007812 20.710938 16.882812 22.890625 C 16.871094 22.902344 16.871094 22.917969 16.871094 22.941406 C 16.835938 23.054688 16.6875 23.824219 17.582031 23.675781 C 18.152344 23.589844 18.238281 23.710938 18.316406 23.824219 L 18.339844 23.847656 C 18.363281 23.886719 18.402344 23.910156 18.453125 23.9375 C 18.542969 23.984375 18.667969 24 18.804688 23.984375 C 18.929688 23.960938 19.066406 23.925781 19.179688 23.835938 C 19.257812 23.789062 19.304688 23.726562 19.351562 23.636719 C 19.363281 23.613281 19.429688 23.636719 19.511719 23.671875 C 19.738281 23.761719 20 23.855469 20.332031 23.660156 C 20.410156 23.625 20.445312 23.511719 20.394531 23.433594 C 20.34375 23.355469 20.242188 23.320312 20.15625 23.375 C 19.96875 23.488281 19.78125 23.410156 19.632812 23.363281 C 19.394531 23.261719 19.199219 23.175781 19.050781 23.488281 C 19.035156 23.511719 19 23.546875 18.972656 23.574219 C 18.910156 23.613281 18.835938 23.636719 18.757812 23.652344 C 18.679688 23.664062 18.621094 23.652344 18.597656 23.640625 C 18.597656 23.640625 18.585938 23.640625 18.585938 23.628906 C 18.460938 23.457031 18.300781 23.230469 17.527344 23.355469 C 17.128906 23.414062 17.164062 23.105469 17.175781 23.035156 C 18.359375 20.738281 18.597656 18.460938 17.015625 16.15625 C 16.320312 14.894531 13.945312 14.824219 12.816406 15.234375 C 12.476562 15.359375 12.679688 15.53125 12.738281 15.507812 C 13.144531 15.761719 15.550781 14.609375 16.746094 16.351562 Z M 16.746094 16.351562 " fill-opacity="1" fill-rule="nonzero"/><path fill="#545454" d="M 26.265625 14.757812 C 24.609375 14.554688 21.230469 14.394531 20.035156 16.203125 C 19.988281 16.28125 20.011719 16.375 20.082031 16.429688 C 20.160156 16.476562 20.269531 16.464844 20.320312 16.394531 C 21.707031 14.289062 26.511719 15.121094 27.074219 15.222656 Z M 26.265625 14.757812 " fill-opacity="1" fill-rule="nonzero"/><path fill="#545454" d="M 13.507812 18.59375 C 13.304688 18.558594 13.121094 18.492188 12.9375 18.410156 C 12.8125 18.59375 12.550781 18.921875 12.242188 19.046875 C 12.164062 19.082031 12.066406 19.046875 12.027344 18.957031 C 11.992188 18.867188 12.027344 18.773438 12.117188 18.742188 C 12.328125 18.640625 12.527344 18.421875 12.640625 18.265625 C 12.503906 18.1875 12.390625 18.105469 12.277344 18.015625 C 12.199219 17.957031 12.1875 17.855469 12.253906 17.777344 C 12.3125 17.703125 12.414062 17.703125 12.492188 17.753906 C 12.628906 17.867188 12.777344 17.96875 12.9375 18.039062 C 12.949219 18.039062 12.949219 18.050781 12.960938 18.050781 C 14.359375 18.710938 16.496094 18.222656 16.496094 18.222656 C 16.585938 18.210938 16.671875 18.261719 16.699219 18.347656 C 16.722656 18.449219 16.664062 18.535156 16.574219 18.550781 C 16.5625 18.550781 15.203125 18.859375 13.882812 18.664062 C 13.792969 18.789062 13.585938 19.074219 13.324219 19.1875 C 13.300781 19.199219 13.273438 19.199219 13.246094 19.199219 C 13.1875 19.199219 13.121094 19.164062 13.097656 19.097656 C 13.0625 19.007812 13.097656 18.914062 13.1875 18.871094 C 13.304688 18.832031 13.429688 18.707031 13.507812 18.59375 Z M 13.507812 18.59375 " fill-opacity="1" fill-rule="nonzero"/><path fill="#545454" d="M 19.113281 4.851562 C 22.902344 4.851562 26.339844 6.386719 28.816406 8.878906 C 28.953125 9.003906 29.078125 9.140625 29.203125 9.277344 L 29.390625 9.476562 C 31.53125 11.910156 32.835938 15.097656 32.835938 18.585938 C 32.835938 22.386719 31.304688 25.8125 28.8125 28.308594 C 26.332031 30.789062 22.894531 32.324219 19.109375 32.324219 C 15.320312 32.324219 11.882812 30.789062 9.40625 28.308594 C 6.914062 25.804688 5.386719 22.382812 5.386719 18.582031 C 5.386719 15.089844 6.691406 11.902344 8.832031 9.472656 L 9.007812 9.269531 C 9.144531 9.132812 9.269531 9.007812 9.40625 8.871094 C 11.890625 6.378906 15.328125 4.851562 19.113281 4.851562 Z M 28.554688 9.140625 C 26.136719 6.71875 22.800781 5.214844 19.113281 5.214844 C 15.425781 5.214844 12.085938 6.726562 9.652344 9.140625 C 7.238281 11.554688 5.742188 14.894531 5.742188 18.582031 C 5.742188 19.582031 5.855469 20.5625 6.0625 21.496094 C 5.914062 22.15625 6.039062 22.804688 6.371094 23.238281 C 6.429688 23.226562 6.496094 23.203125 6.542969 23.175781 C 7.214844 25.019531 8.285156 26.667969 9.648438 28.035156 C 12.082031 30.457031 15.414062 31.949219 19.109375 31.949219 C 22.800781 31.949219 26.136719 30.457031 28.550781 28.035156 C 29.90625 26.679688 30.96875 25.03125 31.65625 23.214844 C 31.691406 23.226562 31.730469 23.238281 31.78125 23.25 C 32.089844 22.851562 32.226562 22.25 32.117188 21.644531 C 32.355469 20.65625 32.480469 19.640625 32.480469 18.574219 C 32.488281 14.894531 30.988281 11.554688 28.554688 9.140625 Z M 28.554688 9.140625 " fill-opacity="1" fill-rule="nonzero"/><path fill="#545454" d="M 19.113281 5.261719 C 18.339844 5.988281 13.828125 9.984375 8.820312 9.574219 L 8.832031 9.472656 L 9.035156 9.257812 C 14.292969 9.566406 18.988281 4.933594 19 4.910156 L 19.113281 5.035156 L 19.226562 4.910156 C 19.238281 4.933594 23.9375 9.574219 29.191406 9.257812 L 29.394531 9.472656 L 29.40625 9.574219 C 24.398438 9.984375 19.886719 5.980469 19.113281 5.261719 Z M 19.113281 5.261719 " fill-opacity="1" fill-rule="nonzero"/><path fill="#545454" d="M 15.464844 28.304688 C 15.464844 28.304688 15.738281 30.007812 15.613281 31.679688 C 15.488281 31.644531 15.375 31.621094 15.261719 31.578125 C 15.386719 29.984375 15.125 28.363281 15.125 28.351562 Z M 15.464844 28.304688 " fill-opacity="1" fill-rule="nonzero"/><path fill="#545454" d="M 24.722656 18.59375 C 24.921875 18.558594 25.109375 18.492188 25.292969 18.410156 C 25.417969 18.59375 25.679688 18.921875 25.988281 19.046875 C 26.066406 19.082031 26.160156 19.046875 26.203125 18.957031 C 26.238281 18.867188 26.203125 18.773438 26.113281 18.742188 C 25.898438 18.640625 25.703125 18.421875 25.589844 18.265625 C 25.726562 18.1875 25.839844 18.105469 25.953125 18.015625 C 26.03125 17.957031 26.042969 17.855469 25.976562 17.777344 C 25.917969 17.703125 25.816406 17.703125 25.738281 17.753906 C 25.601562 17.867188 25.453125 17.96875 25.292969 18.039062 C 25.28125 18.039062 25.28125 18.050781 25.269531 18.050781 C 23.871094 18.710938 21.730469 18.222656 21.730469 18.222656 C 21.640625 18.210938 21.546875 18.261719 21.527344 18.347656 C 21.503906 18.449219 21.5625 18.535156 21.652344 18.550781 C 21.664062 18.550781 23.027344 18.859375 24.347656 18.664062 C 24.4375 18.789062 24.644531 19.074219 24.90625 19.1875 C 24.929688 19.199219 24.953125 19.199219 24.964844 19.199219 C 25.042969 19.199219 25.101562 19.164062 25.125 19.097656 C 25.160156 19.007812 25.125 18.914062 25.035156 18.871094 C 24.921875 18.832031 24.796875 18.707031 24.722656 18.59375 Z M 24.722656 18.59375 " fill-opacity="1" fill-rule="nonzero"/><path fill="#545454" d="M 22.765625 28.304688 C 22.765625 28.304688 22.492188 30.007812 22.617188 31.679688 C 22.742188 31.644531 22.855469 31.621094 22.96875 31.578125 C 22.84375 29.984375 23.105469 28.363281 23.105469 28.351562 Z M 22.765625 28.304688 " fill-opacity="1" fill-rule="nonzero"/><path fill="#545454" d="M 25.769531 30.160156 C 26.203125 30.023438 26.601562 29.761719 26.949219 29.410156 C 27.324219 29.035156 27.648438 28.566406 27.847656 28 C 28.050781 27.441406 28.121094 26.875 28.085938 26.351562 C 28.050781 25.851562 27.902344 25.394531 27.664062 25.019531 C 27.242188 25.15625 26.84375 25.40625 26.480469 25.769531 C 26.105469 26.132812 25.796875 26.613281 25.59375 27.167969 C 25.382812 27.726562 25.320312 28.292969 25.359375 28.828125 C 25.394531 29.308594 25.542969 29.773438 25.769531 30.160156 Z M 27.1875 29.648438 C 26.765625 30.070312 26.265625 30.371094 25.742188 30.507812 L 25.632812 30.542969 L 25.570312 30.445312 C 25.261719 29.996094 25.070312 29.445312 25.023438 28.851562 C 24.988281 28.28125 25.058594 27.667969 25.285156 27.054688 C 25.511719 26.453125 25.84375 25.929688 26.253906 25.53125 C 26.675781 25.109375 27.175781 24.808594 27.699219 24.660156 L 27.8125 24.632812 L 27.871094 24.734375 C 28.183594 25.179688 28.371094 25.734375 28.417969 26.328125 C 28.457031 26.898438 28.382812 27.511719 28.15625 28.113281 C 27.9375 28.726562 27.597656 29.238281 27.1875 29.648438 Z M 27.1875 29.648438 " fill-opacity="1" fill-rule="nonzero"/><path fill="#545454" d="M 31.785156 23.054688 C 31.910156 22.851562 32 22.605469 32.035156 22.34375 C 32.070312 22.046875 32.058594 21.707031 31.957031 21.386719 C 31.855469 21.050781 31.683594 20.761719 31.480469 20.542969 C 31.308594 20.339844 31.09375 20.191406 30.871094 20.097656 C 30.746094 20.300781 30.65625 20.542969 30.621094 20.804688 C 30.574219 21.101562 30.597656 21.441406 30.695312 21.761719 C 30.796875 22.101562 30.957031 22.386719 31.171875 22.605469 C 31.351562 22.804688 31.558594 22.957031 31.785156 23.054688 Z M 32.375 22.394531 C 32.3125 22.753906 32.171875 23.089844 31.976562 23.363281 L 31.898438 23.449219 L 31.785156 23.414062 C 31.476562 23.300781 31.171875 23.105469 30.921875 22.832031 C 30.683594 22.570312 30.5 22.230469 30.386719 21.863281 C 30.261719 21.488281 30.238281 21.101562 30.285156 20.75 C 30.347656 20.390625 30.472656 20.054688 30.683594 19.78125 L 30.761719 19.691406 L 30.875 19.730469 C 31.183594 19.84375 31.488281 20.039062 31.738281 20.3125 C 31.976562 20.574219 32.160156 20.914062 32.273438 21.28125 C 32.386719 21.660156 32.410156 22.046875 32.375 22.394531 Z M 32.375 22.394531 " fill-opacity="1" fill-rule="nonzero"/><path fill="#545454" d="M 27.140625 26.441406 C 27.152344 26.394531 27.1875 26.363281 27.242188 26.382812 C 27.277344 26.382812 27.320312 26.429688 27.300781 26.472656 C 27.300781 26.484375 26.742188 29.199219 25.832031 30.269531 C 25.808594 30.308594 25.757812 30.308594 25.71875 30.28125 C 25.683594 30.246094 25.683594 30.195312 25.707031 30.160156 C 26.589844 29.113281 27.140625 26.441406 27.140625 26.441406 Z M 27.140625 26.441406 " fill-opacity="1" fill-rule="nonzero"/><path fill="#545454" d="M 31.035156 20.972656 C 31.011719 20.9375 31.023438 20.882812 31.070312 20.859375 C 31.105469 20.835938 31.160156 20.847656 31.183594 20.882812 C 31.183594 20.894531 32.070312 22.429688 31.921875 23.273438 C 31.910156 23.308594 31.875 23.351562 31.820312 23.332031 C 31.785156 23.320312 31.742188 23.285156 31.761719 23.230469 C 31.898438 22.457031 31.035156 20.972656 31.035156 20.972656 Z M 31.035156 20.972656 " fill-opacity="1" fill-rule="nonzero"/><path fill="#545454" d="M 29.542969 22.195312 C 29.542969 22.195312 30.15625 25.277344 28.769531 28.265625 L 28.621094 28.191406 C 29.976562 25.246094 29.382812 22.230469 29.371094 22.21875 Z M 29.542969 22.195312 " fill-opacity="1" fill-rule="nonzero"/><path fill="#545454" d="M 29.453125 21.96875 C 29.601562 21.96875 29.726562 22.082031 29.726562 22.230469 C 29.726562 22.382812 29.601562 22.503906 29.453125 22.503906 C 29.316406 22.503906 29.191406 22.382812 29.191406 22.230469 C 29.191406 22.082031 29.316406 21.96875 29.453125 21.96875 Z M 29.453125 21.96875 " fill-opacity="1" fill-rule="nonzero"/><path fill="#545454" d="M 30.386719 23.105469 C 30.386719 23.105469 31.261719 23.949219 29.863281 26.984375 L 29.714844 26.90625 C 31.058594 23.992188 30.261719 23.230469 30.261719 23.21875 Z M 30.386719 23.105469 " fill-opacity="1" fill-rule="nonzero"/><path fill="#545454" d="M 30.328125 22.890625 C 30.476562 22.890625 30.589844 23.015625 30.589844 23.164062 C 30.589844 23.3125 30.476562 23.425781 30.328125 23.425781 C 30.179688 23.425781 30.054688 23.3125 30.054688 23.164062 C 30.054688 23.015625 30.179688 22.890625 30.328125 22.890625 Z M 30.328125 22.890625 " fill-opacity="1" fill-rule="nonzero"/><path fill="#545454" d="M 12.484375 30.492188 C 11.960938 30.355469 11.460938 30.058594 11.039062 29.628906 C 10.628906 29.21875 10.289062 28.707031 10.070312 28.09375 C 9.84375 27.496094 9.773438 26.886719 9.808594 26.3125 C 9.855469 25.710938 10.046875 25.164062 10.355469 24.71875 L 10.414062 24.617188 L 10.527344 24.640625 C 11.050781 24.789062 11.550781 25.085938 11.972656 25.515625 C 12.382812 25.914062 12.722656 26.4375 12.941406 27.035156 C 13.167969 27.636719 13.238281 28.253906 13.203125 28.832031 C 13.15625 29.414062 12.964844 29.980469 12.65625 30.425781 L 12.597656 30.527344 Z M 11.265625 29.398438 C 11.628906 29.746094 12.027344 30.007812 12.449219 30.144531 C 12.6875 29.761719 12.835938 29.300781 12.871094 28.816406 C 12.90625 28.28125 12.835938 27.71875 12.632812 27.15625 C 12.429688 26.609375 12.109375 26.121094 11.734375 25.746094 C 11.382812 25.394531 10.984375 25.144531 10.550781 25.007812 C 10.324219 25.382812 10.175781 25.839844 10.140625 26.339844 C 10.105469 26.863281 10.164062 27.421875 10.378906 27.988281 C 10.582031 28.546875 10.890625 29.023438 11.265625 29.398438 Z M 11.265625 29.398438 " fill-opacity="1" fill-rule="nonzero"/><path fill="#545454" d="M 6.253906 23.34375 C 6.039062 23.082031 5.914062 22.742188 5.855469 22.386719 C 5.808594 22.035156 5.84375 21.648438 5.957031 21.273438 C 6.070312 20.898438 6.253906 20.566406 6.492188 20.304688 C 6.742188 20.03125 7.039062 19.828125 7.351562 19.722656 L 7.464844 19.6875 L 7.542969 19.777344 C 7.757812 20.050781 7.882812 20.390625 7.941406 20.746094 C 7.988281 21.097656 7.953125 21.484375 7.839844 21.859375 C 7.726562 22.230469 7.542969 22.566406 7.304688 22.828125 C 7.054688 23.101562 6.757812 23.300781 6.441406 23.410156 L 6.332031 23.445312 Z M 6.195312 22.332031 C 6.230469 22.59375 6.320312 22.84375 6.441406 23.039062 C 6.667969 22.941406 6.878906 22.792969 7.054688 22.59375 C 7.257812 22.367188 7.429688 22.082031 7.53125 21.75 C 7.632812 21.429688 7.65625 21.089844 7.609375 20.792969 C 7.574219 20.53125 7.484375 20.28125 7.359375 20.085938 C 7.132812 20.175781 6.925781 20.335938 6.746094 20.53125 C 6.542969 20.757812 6.371094 21.042969 6.269531 21.375 C 6.167969 21.695312 6.144531 22.03125 6.195312 22.332031 Z M 6.195312 22.332031 " fill-opacity="1" fill-rule="nonzero"/><path fill="#545454" d="M 10.925781 26.453125 C 10.914062 26.417969 10.949219 26.363281 10.984375 26.363281 C 11.035156 26.351562 11.074219 26.375 11.085938 26.425781 C 11.085938 26.425781 11.632812 29.089844 12.519531 30.132812 C 12.542969 30.171875 12.542969 30.222656 12.507812 30.257812 C 12.472656 30.28125 12.417969 30.28125 12.394531 30.246094 C 11.492188 29.171875 10.925781 26.464844 10.925781 26.453125 Z M 10.925781 26.453125 " fill-opacity="1" fill-rule="nonzero"/><path fill="#545454" d="M 7.039062 20.875 C 7.0625 20.839844 7.113281 20.828125 7.152344 20.851562 C 7.199219 20.863281 7.210938 20.929688 7.1875 20.964844 C 7.1875 20.964844 6.324219 22.445312 6.460938 23.230469 C 6.472656 23.277344 6.4375 23.320312 6.402344 23.332031 C 6.355469 23.34375 6.3125 23.308594 6.300781 23.273438 C 6.15625 22.417969 7.039062 20.875 7.039062 20.875 Z M 7.039062 20.875 " fill-opacity="1" fill-rule="nonzero"/><path fill="#545454" d="M 8.683594 22.183594 C 8.683594 22.183594 8.074219 25.265625 9.457031 28.253906 L 9.605469 28.179688 C 8.25 25.234375 8.84375 22.21875 8.855469 22.207031 Z M 8.683594 22.183594 " fill-opacity="1" fill-rule="nonzero"/><path fill="#545454" d="M 8.773438 21.957031 C 8.625 21.957031 8.5 22.070312 8.5 22.21875 C 8.5 22.367188 8.625 22.492188 8.773438 22.492188 C 8.910156 22.492188 9.035156 22.367188 9.035156 22.21875 C 9.035156 22.070312 8.910156 21.957031 8.773438 21.957031 Z M 8.773438 21.957031 " fill-opacity="1" fill-rule="nonzero"/><path fill="#545454" d="M 7.839844 23.09375 C 7.839844 23.09375 6.964844 23.9375 8.363281 26.972656 L 8.511719 26.894531 C 7.167969 23.980469 7.964844 23.21875 7.964844 23.207031 Z M 7.839844 23.09375 " fill-opacity="1" fill-rule="nonzero"/><path fill="#545454" d="M 7.898438 22.878906 C 7.75 22.878906 7.636719 23.003906 7.636719 23.152344 C 7.636719 23.300781 7.75 23.414062 7.898438 23.414062 C 8.046875 23.414062 8.160156 23.300781 8.160156 23.152344 C 8.160156 23.003906 8.046875 22.878906 7.898438 22.878906 Z M 7.898438 22.878906 " fill-opacity="1" fill-rule="nonzero"/><g clip-path="url(#9997fc31a3)"><path fill="#545454" d="M 19.113281 3.714844 C 23.210938 3.714844 26.9375 5.386719 29.632812 8.074219 C 32.308594 10.769531 33.980469 14.484375 33.980469 18.582031 C 33.980469 22.695312 32.308594 26.40625 29.632812 29.101562 C 26.9375 31.789062 23.210938 33.445312 19.113281 33.445312 C 15.015625 33.445312 11.289062 31.789062 8.597656 29.101562 C 5.921875 26.40625 4.25 22.695312 4.25 18.582031 C 4.25 14.484375 5.921875 10.769531 8.597656 8.074219 C 11.289062 5.386719 15.015625 3.714844 19.113281 3.714844 Z M 29.191406 8.503906 C 26.617188 5.921875 23.050781 4.328125 19.113281 4.328125 C 15.179688 4.328125 11.609375 5.921875 9.035156 8.503906 C 6.441406 11.078125 4.851562 14.644531 4.851562 18.582031 C 4.851562 22.519531 6.441406 26.097656 9.035156 28.671875 C 11.617188 31.253906 15.179688 32.847656 19.113281 32.847656 C 23.050781 32.847656 26.617188 31.253906 29.191406 28.671875 C 31.785156 26.089844 33.378906 22.519531 33.378906 18.582031 C 33.378906 14.644531 31.785156 11.078125 29.191406 8.503906 Z M 29.191406 8.503906 " fill-opacity="1" fill-rule="nonzero"/></g><g fill="#545454" fill-opacity="1"><g transform="translate(35.911804, 23.412516)"><g><path d="M 11.820312 -12.675781 C 10.371094 -11.960938 8.957031 -12.027344 7.402344 -12.1875 C 7.070312 -12.222656 6.722656 -12.167969 6.390625 -12.167969 C 6.058594 -12.1875 5.742188 -12.203125 5.429688 -12.167969 C 5.117188 -12.132812 4.765625 -12.082031 4.523438 -11.90625 C 4.277344 -11.734375 4.191406 -11.46875 4.03125 -11.226562 C 3.929688 -11.105469 3.265625 -10.109375 3.753906 -10.023438 C 3.894531 -10.003906 3.929688 -10.214844 4.03125 -10.316406 C 4.261719 -10.546875 4.539062 -10.683594 4.835938 -10.773438 C 6.214844 -11.191406 7.628906 -10.632812 9.027344 -10.753906 C 8.46875 -10.371094 7.980469 -9.777344 7.488281 -9.289062 L 6.632812 -8.414062 C 6.582031 -8.363281 6.179688 -7.910156 6.390625 -8.082031 L 6.023438 -7.699219 C 6.007812 -7.71875 6.109375 -7.820312 6.09375 -7.820312 C 5.917969 -7.960938 5.027344 -6.828125 4.90625 -6.667969 C 4.589844 -6.285156 4.277344 -5.882812 3.945312 -5.515625 C 3.839844 -5.394531 3.71875 -5.253906 3.632812 -5.117188 C 3.5625 -4.957031 3.578125 -4.941406 3.507812 -4.855469 C 3.5625 -4.992188 3.421875 -4.800781 3.40625 -4.785156 C 3.316406 -4.695312 3.28125 -4.574219 3.195312 -4.488281 C 2.933594 -4.136719 2.566406 -3.875 2.289062 -3.507812 C 1.695312 -2.742188 1.257812 -1.867188 0.75 -1.046875 C 0.558594 -0.734375 0.210938 -0.472656 0.0507812 -0.15625 C -0.121094 0.175781 0.121094 0.699219 0.472656 0.820312 C 0.785156 0.925781 0.890625 0.574219 1.101562 0.382812 C 1.398438 0.121094 1.761719 -0.121094 2.164062 -0.140625 C 3.054688 -0.210938 3.703125 0.628906 4.433594 0.976562 C 5.414062 1.414062 6.25 1.167969 7.160156 0.714844 C 7.855469 0.382812 8.660156 -0.105469 9.097656 -0.75 C 9.164062 -0.839844 9.429688 -1.167969 9.324219 -1.308594 C 9.164062 -1.464844 8.605469 -0.976562 8.484375 -0.90625 C 7.648438 -0.367188 6.546875 -0.015625 5.550781 -0.191406 C 5.097656 -0.261719 4.625 -0.472656 4.207031 -0.664062 C 3.980469 -0.785156 3.769531 -0.925781 3.507812 -0.976562 C 3.246094 -1.046875 2.984375 -1.03125 2.742188 -1.101562 C 3.210938 -1.867188 3.734375 -2.566406 4.261719 -3.28125 C 4.328125 -3.371094 4.800781 -4.171875 4.921875 -4.261719 L 4.800781 -4.171875 C 5.183594 -4.695312 5.65625 -5.097656 6.09375 -5.605469 C 6.546875 -6.128906 6.964844 -6.652344 7.402344 -7.191406 C 6.511719 -6.320312 5.605469 -5.464844 4.800781 -4.523438 C 4.363281 -4.015625 3.964844 -3.507812 3.527344 -3.019531 C 4.695312 -4.417969 5.691406 -5.917969 7 -7.191406 C 8.015625 -8.171875 9.027344 -9.21875 10.109375 -10.144531 C 10.179688 -10.230469 10.265625 -10.300781 10.335938 -10.371094 C 10.71875 -10.738281 11.070312 -11.15625 11.539062 -11.402344 C 11.523438 -11.382812 11.382812 -11.261719 11.402344 -11.242188 C 11.503906 -11.140625 12.167969 -11.800781 12.238281 -11.90625 C 12.414062 -12.222656 12.34375 -12.851562 11.925781 -12.710938 L 11.925781 -12.726562 C 11.925781 -12.710938 11.90625 -12.710938 11.90625 -12.710938 C 11.890625 -12.710938 11.855469 -12.691406 11.835938 -12.675781 Z M 4.941406 -4.277344 L 4.921875 -4.261719 C 4.921875 -4.261719 4.921875 -4.277344 4.941406 -4.277344 Z M 4.941406 -4.277344 "/></g></g></g><g fill="#545454" fill-opacity="1"><g transform="translate(45.424749, 23.412516)"><g><path d="M 8.886719 -4.207031 C 8.871094 -4.589844 8.554688 -4.261719 8.449219 -4.121094 C 8.222656 -3.789062 8.015625 -3.4375 7.804688 -3.109375 C 7.332031 -2.390625 6.863281 -1.675781 6.320312 -0.996094 C 4.523438 1.222656 5.777344 -2.722656 5.640625 -2.6875 C 5.570312 -2.671875 5.515625 -2.410156 5.5 -2.355469 C 5.640625 -2.984375 5.902344 -3.734375 6.234375 -4.347656 C 6.425781 -4.730469 6.652344 -5.046875 6.300781 -5.464844 C 5.65625 -6.25 4.90625 -5.535156 4.488281 -4.992188 C 4.3125 -5.65625 3.964844 -6.632812 3.109375 -6.632812 C 2.722656 -6.632812 2.496094 -6.441406 2.234375 -6.214844 C 2.078125 -6.109375 1.957031 -6.09375 1.816406 -5.972656 C 1.589844 -5.8125 1.433594 -5.570312 1.273438 -5.359375 C 0.679688 -4.488281 0.261719 -3.386719 0.0703125 -2.375 C -0.015625 -1.886719 -0.0507812 -1.34375 0.0859375 -0.855469 C 0.175781 -0.574219 0.488281 0.0507812 0.890625 0 C 0.90625 0 0.871094 -0.015625 0.820312 -0.0507812 C 1.066406 0.015625 1.34375 -0.015625 1.554688 -0.15625 C 1.570312 -0.121094 1.363281 -0.0351562 1.363281 -0.0351562 C 1.554688 0.261719 2.984375 -1.464844 3.089844 -1.625 C 3.316406 -1.9375 3.472656 -2.269531 3.683594 -2.601562 C 3.839844 -2.847656 4.085938 -3.160156 4.261719 -3.421875 C 4.242188 -3.300781 4.242188 -3.144531 4.242188 -3.144531 C 3.929688 -2.148438 3.632812 -1.066406 4.050781 -0.0351562 C 4.242188 0.488281 4.714844 0.976562 5.308594 0.871094 C 5.832031 0.785156 6.269531 0.28125 6.582031 -0.121094 C 6.964844 -0.574219 7.296875 -1.082031 7.628906 -1.605469 C 7.910156 -2.078125 8.171875 -2.550781 8.398438 -3.074219 C 8.539062 -3.40625 8.921875 -3.804688 8.886719 -4.207031 Z M 3.875 -4.085938 C 3.789062 -3.964844 3.703125 -3.839844 3.632812 -3.71875 L 3.175781 -3.074219 C 2.878906 -2.636719 2.566406 -2.21875 2.234375 -1.816406 C 2.148438 -1.695312 1.726562 -1.152344 1.554688 -1.203125 C 1.292969 -1.292969 1.570312 -2.199219 1.605469 -2.339844 C 1.660156 -2.582031 2.582031 -5.273438 2.828125 -5.324219 C 2.515625 -5.34375 1.5 -2.183594 1.449219 -1.921875 C 1.589844 -2.777344 1.902344 -3.613281 2.253906 -4.398438 C 2.445312 -4.800781 2.878906 -5.867188 3.457031 -5.867188 C 3.769531 -5.867188 3.839844 -5.21875 3.894531 -5.011719 C 3.875 -5.046875 3.71875 -5.550781 3.703125 -5.535156 C 3.613281 -5.464844 3.964844 -4.503906 3.964844 -4.363281 C 3.964844 -4.226562 3.964844 -4.226562 3.875 -4.085938 Z M 4.277344 -3.230469 C 4.277344 -3.230469 4.328125 -3.472656 4.347656 -3.527344 L 4.433594 -3.648438 Z M 4.015625 -4.3125 L 4.015625 -4.488281 C 4.066406 -4.417969 4.066406 -4.363281 4.015625 -4.3125 Z M 4.015625 -4.3125 "/></g></g></g><g fill="#545454" fill-opacity="1"><g transform="translate(53.0351, 23.412516)"><g><path d="M 8.660156 -4.296875 C 8.574219 -4.296875 8.449219 -4.121094 8.398438 -4.066406 C 8.152344 -3.824219 7.945312 -3.542969 7.734375 -3.28125 C 7.160156 -2.617188 6.582031 -1.9375 5.953125 -1.328125 C 5.796875 -1.1875 5.394531 -0.714844 5.167969 -0.871094 C 5.027344 -0.960938 5.152344 -1.519531 5.167969 -1.640625 C 5.203125 -1.796875 5.515625 -2.617188 5.414062 -2.722656 C 5.359375 -2.757812 5.273438 -2.496094 5.253906 -2.480469 C 5.535156 -3.457031 6.09375 -4.574219 6.546875 -5.535156 C 6.808594 -6.058594 7.140625 -6.703125 6.703125 -7.246094 C 5.9375 -8.1875 4.976562 -6.984375 4.453125 -6.425781 C 4.226562 -6.179688 2.023438 -3.492188 2.058594 -3.472656 C 2.058594 -3.472656 2.21875 -3.667969 2.445312 -3.929688 C 2.113281 -3.492188 1.796875 -3.054688 1.5 -2.601562 C 1.695312 -3.316406 1.902344 -4.015625 2.128906 -4.714844 C 2.253906 -5.0625 2.355469 -5.429688 2.480469 -5.796875 C 2.617188 -6.179688 2.722656 -6.335938 3.019531 -6.617188 C 3.527344 -7.070312 4.015625 -7.558594 4.46875 -8.082031 C 4.644531 -8.292969 4.765625 -8.539062 4.941406 -8.730469 C 5.097656 -8.886719 5.324219 -9.027344 5.5 -9.21875 C 6.390625 -10.265625 7.105469 -11.574219 7.699219 -12.796875 C 7.960938 -13.375 8.207031 -13.96875 8.378906 -14.578125 C 8.414062 -14.71875 8.800781 -16.324219 8.710938 -16.324219 C 8.695312 -16.324219 8.695312 -16.308594 8.675781 -16.273438 C 8.695312 -16.550781 8.675781 -16.867188 8.574219 -17.144531 C 8.589844 -17.144531 8.675781 -16.882812 8.675781 -16.882812 C 8.78125 -16.953125 8.46875 -17.492188 8.398438 -17.5625 C 8.242188 -17.722656 8.015625 -17.808594 7.785156 -17.808594 C 7.332031 -17.84375 6.914062 -17.597656 6.566406 -17.335938 C 5.902344 -16.832031 5.429688 -16.078125 4.941406 -15.398438 C 4.660156 -15.015625 4.398438 -14.628906 4.15625 -14.230469 C 3.980469 -13.96875 3.597656 -13.496094 3.597656 -13.179688 C 3.613281 -13.164062 3.632812 -13.164062 3.632812 -13.164062 L 3.421875 -12.761719 C 3.421875 -12.761719 3.527344 -13.078125 3.542969 -13.09375 C 3.457031 -13.042969 3.371094 -12.675781 3.371094 -12.65625 C 2.6875 -11.332031 1.972656 -10.054688 1.5 -8.640625 C 0.960938 -7.054688 0.558594 -5.414062 0.261719 -3.769531 C 0.121094 -3.019531 -0.0507812 -2.199219 0.015625 -1.433594 C 0.015625 -1.222656 0.0351562 -0.976562 0.191406 -0.804688 C 0.382812 -0.558594 0.785156 -0.472656 1.011719 -0.714844 C 1.082031 -0.804688 1.082031 -0.855469 1.117188 -0.941406 L 1.433594 -1.5 C 1.851562 -2.148438 2.355469 -2.742188 2.757812 -3.40625 C 2.8125 -3.507812 2.863281 -3.632812 2.933594 -3.71875 C 3.019531 -3.824219 3.054688 -3.769531 3.160156 -3.859375 C 3.457031 -4.101562 3.683594 -4.46875 3.929688 -4.765625 C 4.433594 -5.394531 4.941406 -6.109375 5.585938 -6.632812 L 5.082031 -5.414062 L 5.132812 -5.464844 L 4.871094 -4.871094 C 4.855469 -4.886719 4.921875 -5.046875 4.921875 -5.0625 C 4.855469 -5.0625 4.523438 -4.382812 4.488281 -4.3125 C 4.277344 -3.894531 4.050781 -3.472656 3.929688 -3.039062 C 3.824219 -2.617188 3.703125 -2.199219 3.578125 -1.78125 C 3.527344 -1.519531 3.472656 -1.257812 3.492188 -0.996094 C 3.492188 -0.925781 3.632812 -0.296875 3.683594 -0.347656 L 3.683594 -0.417969 C 3.71875 -0.3125 3.753906 -0.226562 3.804688 -0.140625 L 3.703125 -0.296875 C 3.648438 -0.175781 4.121094 0.226562 4.171875 0.28125 C 4.433594 0.542969 4.695312 0.714844 5.097656 0.734375 C 5.429688 0.75 5.605469 0.628906 5.847656 0.402344 C 6.511719 -0.246094 6.984375 -1.136719 7.488281 -1.902344 C 7.769531 -2.304688 8.046875 -2.722656 8.308594 -3.144531 C 8.378906 -3.230469 8.851562 -4.207031 8.78125 -4.191406 C 8.886719 -4.207031 8.695312 -4.296875 8.660156 -4.296875 Z M 7.140625 -16.042969 L 7.140625 -16.0625 C 7.140625 -16.0625 7.160156 -16.0625 7.160156 -16.078125 L 7.160156 -16.0625 C 7.175781 -16.097656 7.191406 -16.132812 7.175781 -16.113281 C 7.316406 -16.324219 7.664062 -16.953125 7.910156 -16.742188 C 8.152344 -16.535156 7.925781 -15.800781 7.855469 -15.539062 C 7.71875 -14.996094 7.507812 -14.472656 7.296875 -13.96875 C 6.878906 -12.988281 6.355469 -12.0625 5.777344 -11.15625 C 5.5 -10.71875 5.203125 -10.285156 4.90625 -9.863281 C 4.75 -9.65625 4.589844 -9.445312 4.417969 -9.234375 L 4.277344 -9.078125 L 4.589844 -9.394531 L 5.289062 -10.371094 C 5.675781 -10.894531 6.039062 -11.46875 6.390625 -12.046875 C 5.5 -10.476562 4.417969 -8.992188 3.160156 -7.664062 L 3.683594 -9.042969 C 3.734375 -9.148438 4.101562 -10.179688 4.101562 -10.179688 C 4.066406 -10.160156 4.015625 -10.074219 3.964844 -9.988281 C 4.382812 -10.945312 4.921875 -11.941406 5.414062 -12.902344 C 5.953125 -13.949219 6.496094 -15.03125 7.125 -16.027344 C 7.125 -16.027344 7.140625 -16.027344 7.140625 -16.042969 Z M 2.757812 -7.488281 C 2.914062 -8.433594 3.351562 -9.324219 3.667969 -10.230469 C 3.945312 -11 4.398438 -11.699219 4.75 -12.429688 C 4.90625 -12.78125 6.582031 -15.976562 6.617188 -15.957031 C 6.757812 -15.871094 4.609375 -11.765625 4.382812 -11.277344 C 4.191406 -10.910156 4.015625 -10.5625 3.875 -10.160156 C 3.753906 -9.777344 3.542969 -9.460938 3.40625 -9.097656 C 3.335938 -8.921875 2.636719 -7.089844 2.6875 -7.070312 C 2.652344 -7.070312 2.722656 -7.351562 2.742188 -7.4375 Z M 3.964844 -8.710938 C 4 -8.746094 4.03125 -8.816406 4.085938 -8.871094 C 4.03125 -8.816406 4 -8.765625 3.964844 -8.710938 Z M 7.140625 -16.042969 L 7.140625 -16.0625 L 7.160156 -16.0625 Z M 2.757812 -7.472656 C 2.757812 -7.453125 2.742188 -7.4375 2.742188 -7.4375 C 2.742188 -7.453125 2.757812 -7.453125 2.757812 -7.472656 Z M 2.757812 -7.472656 "/></g></g></g><g fill="#545454" fill-opacity="1"><g transform="translate(60.558181, 23.412516)"><g><path d="M 7.160156 -4.242188 C 7.054688 -4.695312 6.632812 -4.085938 6.546875 -3.980469 L 5.585938 -2.6875 L 4.644531 -1.449219 L 4.136719 -0.804688 C 4.085938 -0.734375 3.703125 -0.246094 3.734375 -0.246094 C 3.769531 -0.28125 3.824219 -0.28125 3.875 -0.332031 C 3.613281 -0.0507812 2.652344 0.820312 2.480469 0.609375 C 2.339844 0.4375 2.722656 -0.296875 2.777344 -0.472656 C 2.96875 -0.976562 3.144531 -1.5 3.351562 -1.992188 C 3.578125 -2.496094 3.839844 -3.003906 4.050781 -3.507812 C 4.261719 -4.050781 3.945312 -4.242188 3.4375 -4.363281 C 3.210938 -4.417969 2.933594 -4.417969 2.671875 -4.453125 C 2.671875 -4.433594 2.6875 -4.433594 2.6875 -4.433594 C 2.914062 -4.398438 3.246094 -4.382812 3.527344 -4.296875 C 3.109375 -4.417969 2.582031 -4.363281 2.253906 -4.453125 C 2.023438 -4.503906 1.886719 -4.503906 1.921875 -4.765625 C 1.957031 -5.117188 2.320312 -5.480469 2.445312 -5.8125 C 2.445312 -5.796875 2.320312 -5.480469 2.339844 -5.480469 C 2.425781 -5.445312 2.566406 -5.9375 2.566406 -6.007812 C 2.550781 -6.09375 2.339844 -6.355469 2.320312 -6.25 L 2.355469 -6.199219 C 1.519531 -6.773438 0.523438 -5.585938 0.699219 -4.730469 C 0.734375 -4.609375 0.804688 -4.539062 0.855469 -4.398438 C 0.890625 -4.296875 0.855469 -4.171875 0.960938 -4.03125 C 1.328125 -3.578125 1.992188 -3.5625 2.515625 -3.667969 C 2.425781 -3.542969 1.5 -1.589844 1.554688 -1.570312 L 1.433594 -1.136719 C 1.414062 -1.152344 1.484375 -1.292969 1.449219 -1.292969 C 1.328125 -1.308594 1.082031 -0.296875 1.066406 -0.210938 C 0.996094 0.210938 1.011719 0.574219 1.1875 0.960938 C 1.292969 1.203125 1.414062 1.414062 1.640625 1.554688 C 1.851562 1.695312 2.113281 1.761719 2.355469 1.710938 C 2.445312 1.675781 2.777344 1.449219 2.6875 1.464844 L 2.8125 1.414062 C 2.792969 1.433594 2.777344 1.449219 2.777344 1.464844 C 2.828125 1.484375 3.632812 0.839844 3.734375 0.769531 C 4.296875 0.296875 4.75 -0.28125 5.167969 -0.855469 C 5.585938 -1.449219 6.023438 -2.042969 6.425781 -2.636719 C 6.617188 -2.914062 6.792969 -3.195312 6.929688 -3.492188 C 7.035156 -3.703125 7.210938 -4 7.160156 -4.242188 Z M 1.9375 -2.148438 C 2.058594 -2.460938 2.199219 -2.757812 2.355469 -3.054688 C 2.390625 -3.109375 2.636719 -3.734375 2.757812 -3.769531 C 2.671875 -3.71875 2.304688 -2.863281 2.21875 -2.707031 L 1.886719 -1.9375 C 1.710938 -1.519531 1.519531 -1.082031 1.398438 -0.628906 C 1.519531 -1.152344 1.726562 -1.660156 1.9375 -2.148438 Z M 1.519531 1.203125 C 1.625 1.34375 1.761719 1.484375 1.957031 1.554688 C 1.796875 1.5 1.660156 1.414062 1.554688 1.308594 C 1.570312 1.308594 1.570312 1.328125 1.570312 1.34375 C 1.464844 1.203125 1.328125 0.90625 1.308594 0.855469 C 1.257812 0.644531 1.238281 0.402344 1.257812 0.191406 C 1.257812 0.015625 1.273438 -0.121094 1.308594 -0.28125 L 1.308594 -0.261719 C 1.273438 -0.0351562 1.257812 0.191406 1.273438 0.4375 L 1.273438 0.523438 C 1.257812 0.507812 1.257812 0.488281 1.257812 0.488281 C 1.257812 0.488281 1.257812 0.507812 1.273438 0.542969 L 1.273438 0.558594 L 1.34375 0.925781 L 1.292969 0.699219 C 1.328125 0.804688 1.414062 0.996094 1.5 1.1875 L 1.484375 1.167969 C 1.484375 1.1875 1.5 1.203125 1.519531 1.222656 Z M 2.007812 -4.558594 C 2.09375 -4.488281 2.253906 -4.46875 2.410156 -4.453125 C 2.269531 -4.46875 2.148438 -4.503906 2.058594 -4.574219 C 2.058594 -4.574219 1.957031 -4.660156 1.9375 -4.695312 C 1.9375 -4.660156 1.972656 -4.574219 2.007812 -4.558594 Z M 3.839844 -3.195312 L 3.472656 -2.425781 L 3.839844 -3.210938 Z M 1.328125 -0.332031 C 1.328125 -0.3125 1.308594 -0.296875 1.308594 -0.28125 L 1.308594 -0.296875 C 1.308594 -0.3125 1.328125 -0.3125 1.328125 -0.332031 Z M 3.859375 -3.246094 L 3.859375 -3.230469 L 3.839844 -3.230469 Z M 3.859375 -3.246094 L 3.859375 -3.230469 L 3.839844 -3.230469 Z M 1.34375 -0.558594 C 1.34375 -0.574219 1.363281 -0.59375 1.363281 -0.628906 C 1.363281 -0.59375 1.34375 -0.574219 1.34375 -0.558594 Z M 1.414062 1.046875 C 1.414062 1.046875 1.433594 1.066406 1.433594 1.082031 C 1.433594 1.066406 1.414062 1.066406 1.414062 1.046875 Z M 1.957031 -4.730469 C 1.9375 -4.730469 1.9375 -4.714844 1.9375 -4.714844 Z M 1.957031 -4.730469 "/></g></g></g><g fill="#545454" fill-opacity="1"><g transform="translate(66.44049, 23.412516)"><g><path d="M 8.886719 -4.207031 C 8.871094 -4.589844 8.554688 -4.261719 8.449219 -4.121094 C 8.222656 -3.789062 8.015625 -3.4375 7.804688 -3.109375 C 7.332031 -2.390625 6.863281 -1.675781 6.320312 -0.996094 C 4.523438 1.222656 5.777344 -2.722656 5.640625 -2.6875 C 5.570312 -2.671875 5.515625 -2.410156 5.5 -2.355469 C 5.640625 -2.984375 5.902344 -3.734375 6.234375 -4.347656 C 6.425781 -4.730469 6.652344 -5.046875 6.300781 -5.464844 C 5.65625 -6.25 4.90625 -5.535156 4.488281 -4.992188 C 4.3125 -5.65625 3.964844 -6.632812 3.109375 -6.632812 C 2.722656 -6.632812 2.496094 -6.441406 2.234375 -6.214844 C 2.078125 -6.109375 1.957031 -6.09375 1.816406 -5.972656 C 1.589844 -5.8125 1.433594 -5.570312 1.273438 -5.359375 C 0.679688 -4.488281 0.261719 -3.386719 0.0703125 -2.375 C -0.015625 -1.886719 -0.0507812 -1.34375 0.0859375 -0.855469 C 0.175781 -0.574219 0.488281 0.0507812 0.890625 0 C 0.90625 0 0.871094 -0.015625 0.820312 -0.0507812 C 1.066406 0.015625 1.34375 -0.015625 1.554688 -0.15625 C 1.570312 -0.121094 1.363281 -0.0351562 1.363281 -0.0351562 C 1.554688 0.261719 2.984375 -1.464844 3.089844 -1.625 C 3.316406 -1.9375 3.472656 -2.269531 3.683594 -2.601562 C 3.839844 -2.847656 4.085938 -3.160156 4.261719 -3.421875 C 4.242188 -3.300781 4.242188 -3.144531 4.242188 -3.144531 C 3.929688 -2.148438 3.632812 -1.066406 4.050781 -0.0351562 C 4.242188 0.488281 4.714844 0.976562 5.308594 0.871094 C 5.832031 0.785156 6.269531 0.28125 6.582031 -0.121094 C 6.964844 -0.574219 7.296875 -1.082031 7.628906 -1.605469 C 7.910156 -2.078125 8.171875 -2.550781 8.398438 -3.074219 C 8.539062 -3.40625 8.921875 -3.804688 8.886719 -4.207031 Z M 3.875 -4.085938 C 3.789062 -3.964844 3.703125 -3.839844 3.632812 -3.71875 L 3.175781 -3.074219 C 2.878906 -2.636719 2.566406 -2.21875 2.234375 -1.816406 C 2.148438 -1.695312 1.726562 -1.152344 1.554688 -1.203125 C 1.292969 -1.292969 1.570312 -2.199219 1.605469 -2.339844 C 1.660156 -2.582031 2.582031 -5.273438 2.828125 -5.324219 C 2.515625 -5.34375 1.5 -2.183594 1.449219 -1.921875 C 1.589844 -2.777344 1.902344 -3.613281 2.253906 -4.398438 C 2.445312 -4.800781 2.878906 -5.867188 3.457031 -5.867188 C 3.769531 -5.867188 3.839844 -5.21875 3.894531 -5.011719 C 3.875 -5.046875 3.71875 -5.550781 3.703125 -5.535156 C 3.613281 -5.464844 3.964844 -4.503906 3.964844 -4.363281 C 3.964844 -4.226562 3.964844 -4.226562 3.875 -4.085938 Z M 4.277344 -3.230469 C 4.277344 -3.230469 4.328125 -3.472656 4.347656 -3.527344 L 4.433594 -3.648438 Z M 4.015625 -4.3125 L 4.015625 -4.488281 C 4.066406 -4.417969 4.066406 -4.363281 4.015625 -4.3125 Z M 4.015625 -4.3125 "/></g></g></g><g fill="#545454" fill-opacity="1"><g transform="translate(74.050841, 23.412516)"><g/></g></g><g fill="#545454" fill-opacity="1"><g transform="translate(78.938225, 23.412516)"><g><path d="M 1.640625 -1.398438 L 1.625 -1.378906 C 1.640625 -1.398438 1.640625 -1.398438 1.640625 -1.414062 L 1.640625 -1.5 C 1.832031 -2.53125 2.199219 -3.542969 2.566406 -4.539062 C 2.949219 -5.585938 3.316406 -6.617188 3.804688 -7.613281 C 4.261719 -8.554688 4.785156 -9.480469 5.378906 -10.335938 C 5.902344 -11.121094 6.53125 -11.976562 7.332031 -12.5 C 7.578125 -12.570312 7.820312 -12.832031 8.136719 -12.78125 C 8.449219 -12.726562 8.449219 -12.394531 8.378906 -12.082031 C 8.46875 -12.324219 8.519531 -12.589844 8.308594 -12.761719 C 8.03125 -12.972656 7.488281 -12.640625 7.261719 -12.484375 C 7.160156 -12.449219 7.054688 -12.378906 6.964844 -12.308594 C 7.019531 -12.359375 7.089844 -12.414062 7.175781 -12.464844 L 7.089844 -12.429688 L 7.332031 -12.570312 C 7.613281 -12.726562 8.242188 -13.078125 8.449219 -12.621094 C 8.605469 -12.257812 8.363281 -11.644531 8.242188 -11.296875 C 8.015625 -10.703125 7.734375 -10.144531 7.4375 -9.585938 C 7.488281 -9.707031 7.699219 -10.179688 7.699219 -10.179688 C 7.578125 -10.195312 7.019531 -8.902344 6.914062 -8.871094 L 6.929688 -8.871094 C 6.863281 -8.816406 6.808594 -8.765625 6.808594 -8.746094 C 6.773438 -8.539062 7.019531 -8.589844 7.160156 -8.605469 C 7.75 -8.675781 8.519531 -9.183594 8.902344 -9.621094 C 9.324219 -10.089844 9.480469 -10.808594 9.480469 -11.4375 L 9.480469 -11.453125 C 9.460938 -12.640625 8.640625 -14.140625 7.226562 -14.054688 C 6.441406 -14.019531 5.710938 -13.25 5.203125 -12.726562 C 4.835938 -12.308594 4.488281 -11.855469 4.171875 -11.402344 C 4.03125 -11.191406 3.894531 -11 3.769531 -10.789062 C 3.632812 -10.597656 3.351562 -10.300781 3.28125 -10.074219 C 3.28125 -10.074219 3.371094 -10.179688 3.4375 -10.25 C 3.246094 -9.953125 3.074219 -9.636719 2.898438 -9.339844 C 2.878906 -9.359375 3.003906 -9.601562 3.003906 -9.601562 C 2.847656 -9.636719 2.128906 -8.207031 2.042969 -8.046875 C 1.726562 -7.472656 1.449219 -6.894531 1.257812 -6.285156 C 1.046875 -5.605469 0.769531 -4.957031 0.558594 -4.296875 C 0.453125 -3.964844 0.347656 -3.648438 0.28125 -3.316406 C 0.246094 -3.160156 0.210938 -3.019531 0.191406 -2.863281 C 0.191406 -2.847656 0.15625 -2.566406 0.191406 -2.601562 C 0.15625 -2.480469 0.15625 -2.320312 0.140625 -2.199219 C 0.140625 -2.199219 0.140625 -2.496094 0.15625 -2.53125 C 0.0859375 -2.445312 0.140625 -2.113281 0.121094 -2.078125 C 0.0351562 -1.414062 -0.105469 -0.714844 0.121094 -0.0703125 C 0.417969 0.820312 1.152344 1.554688 1.957031 2.023438 C 2.375 2.289062 2.933594 2.582031 3.457031 2.550781 C 4.066406 2.515625 4.660156 2.007812 5.117188 1.640625 C 6.441406 0.523438 7.648438 -1.046875 7.875 -2.828125 C 7.890625 -2.949219 7.980469 -3.5625 7.769531 -3.578125 C 7.578125 -3.597656 7.4375 -3.175781 7.367188 -3.074219 C 6.84375 -2.21875 6.234375 -1.414062 5.550781 -0.679688 C 4.855469 0.0859375 3.980469 0.90625 2.914062 1.152344 C 2.777344 1.1875 2.617188 1.203125 2.460938 1.203125 C 2.253906 1.1875 2.058594 1.136719 1.902344 0.976562 C 1.816406 0.890625 1.726562 0.59375 1.625 0.542969 C 1.625 0.453125 1.605469 0.367188 1.589844 0.3125 L 1.535156 0.210938 C 1.519531 -0.3125 1.535156 -0.804688 1.625 -1.34375 L 1.625 -1.363281 C 1.625 -1.378906 1.640625 -1.378906 1.640625 -1.398438 Z M 4.714844 -9.933594 C 4.03125 -8.816406 3.457031 -7.664062 2.878906 -6.476562 C 2.550781 -5.777344 2.21875 -5.0625 1.957031 -4.3125 C 2.320312 -5.480469 2.757812 -6.597656 3.28125 -7.71875 C 3.910156 -9.0625 4.75 -10.371094 5.742188 -11.453125 C 5.34375 -10.964844 4.992188 -10.40625 4.714844 -9.933594 Z M 6.511719 -11.855469 C 6.269531 -11.609375 6.039062 -11.332031 5.832031 -11.070312 C 6.164062 -11.503906 6.511719 -11.941406 6.949219 -12.292969 C 6.792969 -12.152344 6.632812 -11.976562 6.511719 -11.855469 Z M 8.292969 -11.714844 C 8.328125 -11.820312 8.363281 -11.941406 8.378906 -12.082031 C 8.34375 -11.925781 8.277344 -11.765625 8.277344 -11.644531 C 8.292969 -11.679688 8.292969 -11.699219 8.292969 -11.714844 Z M 8.292969 -11.714844 "/></g></g></g><g fill="#545454" fill-opacity="1"><g transform="translate(87.648237, 23.412516)"><g><path d="M 6.984375 -4.453125 C 6.738281 -4.191406 6.582031 -3.753906 6.390625 -3.4375 C 6.09375 -2.933594 5.796875 -2.445312 5.480469 -1.957031 C 4.886719 -1.011719 4.296875 -0.0507812 3.578125 0.804688 C 3.28125 1.167969 2.652344 2.058594 2.058594 1.992188 C 1.625 1.921875 1.625 1.167969 1.625 0.839844 C 1.625 0.558594 1.640625 0.28125 1.675781 0.015625 C 1.695312 -0.140625 1.832031 -0.664062 1.746094 -0.804688 L 1.605469 -0.28125 C 1.625 -0.488281 1.660156 -0.714844 1.710938 -0.925781 C 1.695312 -0.960938 1.851562 -1.449219 1.886719 -1.605469 C 1.972656 -1.957031 2.058594 -2.304688 2.164062 -2.652344 C 2.253906 -3.003906 2.339844 -3.335938 2.445312 -3.667969 C 2.53125 -3.980469 2.652344 -4.136719 2.847656 -4.382812 C 3.632812 -5.359375 4.347656 -6.425781 5.011719 -7.488281 C 5.253906 -7.890625 5.414062 -8.242188 5.710938 -8.574219 C 6.144531 -9.027344 6.441406 -9.707031 6.722656 -10.265625 C 7.191406 -11.171875 7.820312 -12.429688 7.71875 -13.496094 L 7.71875 -13.582031 L 7.699219 -13.601562 C 7.59375 -14.28125 6.964844 -15.085938 6.199219 -14.839844 C 5.796875 -14.71875 5.5 -14.300781 5.253906 -14.003906 L 4.855469 -13.460938 C 4.765625 -13.355469 4.644531 -13.09375 4.558594 -12.953125 L 4.574219 -12.972656 L 4.015625 -12.011719 L 4.15625 -12.308594 C 4.066406 -12.324219 3.683594 -11.574219 3.632812 -11.488281 C 3.4375 -11.15625 3.265625 -10.824219 3.109375 -10.492188 C 2.757812 -9.792969 2.410156 -9.078125 2.183594 -8.328125 C 1.9375 -7.578125 1.660156 -6.84375 1.398438 -6.09375 C 1.257812 -5.691406 1.117188 -5.273438 0.996094 -4.871094 C 0.890625 -4.539062 0.644531 -4 0.699219 -3.648438 L 0.75 -3.648438 C 0.699219 -3.527344 0.664062 -3.40625 0.628906 -3.28125 C 0.644531 -3.386719 0.644531 -3.507812 0.664062 -3.542969 C 0.574219 -3.421875 0.59375 -3.003906 0.574219 -2.96875 C 0.347656 -2.023438 0.0859375 -1.082031 0.015625 -0.105469 C -0.0351562 0.820312 -0.0351562 2.042969 0.699219 2.722656 C 1.519531 3.472656 2.460938 2.96875 3.144531 2.320312 C 3.945312 1.535156 4.625 0.609375 5.253906 -0.296875 C 5.832031 -1.136719 6.285156 -2.023438 6.808594 -2.863281 C 7.019531 -3.210938 7.246094 -3.5625 7.351562 -3.945312 C 7.421875 -4.226562 7.386719 -4.871094 6.984375 -4.453125 Z M 4.800781 -10.703125 C 5.152344 -11.539062 5.5 -12.394531 5.988281 -13.179688 C 6.109375 -13.375 6.894531 -14.421875 6.863281 -13.496094 L 6.863281 -13.476562 C 6.828125 -12.5 6.199219 -11.46875 5.777344 -10.632812 L 5.046875 -9.269531 C 4.800781 -8.851562 4.382812 -8.328125 4.242188 -7.875 C 4.347656 -8.152344 4.660156 -8.554688 4.820312 -8.816406 C 5.082031 -9.253906 5.308594 -9.691406 5.550781 -10.125 C 5.953125 -10.894531 6.390625 -11.699219 6.6875 -12.535156 C 5.902344 -10.195312 4.433594 -8.015625 3.144531 -5.9375 C 3.648438 -7.472656 4.15625 -9.148438 4.800781 -10.703125 Z M 4.242188 -11.925781 C 4.417969 -12.257812 4.730469 -12.535156 4.90625 -12.851562 C 4.539062 -12.117188 4.085938 -11.453125 3.703125 -10.753906 C 3.703125 -10.773438 3.703125 -10.808594 3.71875 -10.824219 C 3.875 -11.207031 4.050781 -11.558594 4.242188 -11.925781 Z M 0.941406 -2.898438 C 0.925781 -2.863281 0.925781 -2.847656 0.925781 -2.847656 C 0.714844 -2.355469 0.699219 -1.695312 0.59375 -1.167969 C 0.574219 -1.046875 0.542969 -0.941406 0.542969 -0.820312 L 0.542969 -0.871094 L 0.488281 -0.3125 C 0.523438 -0.941406 0.59375 -1.589844 0.714844 -2.199219 L 0.714844 -2.183594 C 0.769531 -2.582031 0.855469 -2.949219 0.925781 -2.949219 C 0.960938 -2.96875 0.960938 -2.914062 0.941406 -2.898438 Z M 0.941406 -2.898438 "/></g></g></g><g fill="#545454" fill-opacity="1"><g transform="translate(93.827288, 23.412516)"><g><path d="M 4.574219 -4.296875 C 4.539062 -4.523438 4.296875 -4.453125 4.171875 -4.363281 C 4.015625 -4.261719 3.144531 -3.109375 3.210938 -3.019531 C 3.265625 -3.019531 3.300781 -3.019531 3.335938 -3.054688 C 3.089844 -2.757812 2.636719 -2.425781 2.304688 -2.164062 C 2.113281 -2.007812 1.640625 -1.570312 1.363281 -1.710938 C 0.769531 -2.007812 1.972656 -4.101562 1.921875 -4.121094 C 1.867188 -4.136719 1.433594 -3.160156 1.34375 -2.933594 C 1.554688 -3.542969 1.832031 -4.15625 2.164062 -4.695312 C 2.148438 -4.644531 2.09375 -4.558594 2.128906 -4.558594 C 2.164062 -4.539062 2.425781 -4.90625 2.375 -4.941406 C 2.355469 -4.941406 2.320312 -4.941406 2.304688 -4.921875 C 2.355469 -4.976562 2.445312 -4.992188 2.445312 -5.097656 C 2.445312 -5.273438 2.042969 -5.445312 1.902344 -5.5 C 1.570312 -5.640625 1.238281 -5.675781 0.976562 -5.5 C 0.628906 -5.289062 0.558594 -4.871094 0.417969 -4.503906 C 0.382812 -4.398438 0.0507812 -3.160156 0.121094 -3.144531 C 0.15625 -3.160156 0.15625 -3.175781 0.175781 -3.210938 L 0.121094 -2.898438 C 0.105469 -2.898438 0.140625 -2.984375 0.105469 -2.984375 C -0.0351562 -2.984375 0 -2.355469 0.015625 -2.269531 C 0.0859375 -1.957031 0.332031 -1.726562 0.523438 -1.464844 C 0.628906 -1.308594 0.734375 -1.152344 0.890625 -1.046875 C 1.101562 -0.890625 0.960938 -1.046875 1.101562 -0.976562 L 1.066406 -0.976562 C 1.046875 -0.871094 1.710938 -0.699219 1.851562 -0.714844 C 2.460938 -0.855469 2.898438 -1.605469 3.246094 -2.078125 C 3.578125 -2.496094 3.859375 -2.914062 4.15625 -3.351562 C 4.328125 -3.578125 4.644531 -3.964844 4.574219 -4.296875 Z M 1.519531 -6.496094 C 1.554688 -6.441406 1.5 -6.371094 1.625 -6.300781 C 1.746094 -6.25 1.816406 -6.320312 1.921875 -6.355469 C 2.128906 -6.441406 2.289062 -6.667969 2.445312 -6.808594 C 2.496094 -6.84375 2.390625 -6.828125 2.390625 -6.828125 C 2.617188 -7.035156 2.425781 -6.792969 2.636719 -6.914062 C 2.847656 -7.054688 2.878906 -7.28125 3.054688 -7.472656 C 2.847656 -7.386719 2.6875 -7.261719 2.550781 -7.089844 C 2.375 -6.863281 2.253906 -6.757812 2.058594 -6.632812 C 2.269531 -6.792969 2.375 -6.949219 2.550781 -7.226562 C 2.601562 -7.28125 2.652344 -7.316406 2.722656 -7.351562 C 2.671875 -7.402344 2.671875 -7.453125 2.742188 -7.507812 C 2.792969 -7.59375 2.898438 -7.628906 2.949219 -7.71875 C 3.039062 -7.839844 3.019531 -7.996094 3.125 -8.117188 C 3.210938 -8.1875 3.335938 -8.242188 3.40625 -8.308594 C 3.5625 -8.449219 3.734375 -8.710938 3.667969 -8.9375 C 3.597656 -9.148438 3.421875 -9.410156 3.230469 -9.53125 C 3.003906 -9.65625 2.6875 -9.707031 2.445312 -9.601562 C 2.390625 -9.585938 2.183594 -9.53125 2.253906 -9.460938 C 2.269531 -9.429688 2.289062 -9.429688 2.320312 -9.429688 C 2.164062 -9.304688 1.902344 -9.097656 2.269531 -8.957031 C 2.234375 -8.921875 2.269531 -8.765625 2.269531 -8.746094 C 2.253906 -8.625 2.007812 -7.980469 1.851562 -7.664062 L 2.058594 -7.980469 C 1.9375 -7.71875 1.796875 -7.472656 1.640625 -7.261719 C 1.746094 -7.488281 1.535156 -7.226562 1.535156 -7.175781 C 1.34375 -7.261719 1.398438 -6.722656 1.414062 -6.667969 C 1.414062 -6.652344 1.519531 -6.496094 1.519531 -6.496094 Z M 1.1875 -2.339844 L 1.1875 -2.320312 L 1.152344 -2.21875 L 1.1875 -2.355469 C 1.203125 -2.375 1.203125 -2.375 1.1875 -2.339844 Z M 1.761719 -7.523438 C 1.761719 -7.523438 1.796875 -7.558594 1.832031 -7.628906 Z M 1.589844 -7.191406 C 1.589844 -7.175781 1.589844 -7.175781 1.570312 -7.160156 C 1.570312 -7.160156 1.570312 -7.175781 1.554688 -7.175781 C 1.570312 -7.175781 1.570312 -7.175781 1.589844 -7.191406 Z M 1.589844 -7.191406 "/></g></g></g><g fill="#545454" fill-opacity="1"><g transform="translate(97.126274, 23.412516)"><g><path d="M 7.226562 -4.15625 C 7.140625 -4.574219 6.894531 -4.296875 6.792969 -4.136719 C 6.546875 -3.839844 6.164062 -3.5625 5.867188 -3.28125 C 5.464844 -2.933594 5.0625 -2.566406 4.644531 -2.234375 C 4.433594 -2.058594 4.171875 -1.816406 3.910156 -1.726562 C 3.875 -1.710938 3.753906 -1.695312 3.753906 -1.675781 L 3.734375 -1.695312 C 3.734375 -1.695312 3.71875 -1.972656 3.734375 -1.992188 C 3.753906 -2.21875 3.824219 -2.445312 3.894531 -2.652344 C 3.910156 -2.6875 4.101562 -3.28125 4.066406 -3.28125 L 3.980469 -3.175781 C 4.085938 -3.386719 4.226562 -3.597656 4.347656 -3.824219 C 4.066406 -3.5625 3.875 -3.265625 3.734375 -2.898438 C 3.667969 -2.722656 3.472656 -2.410156 3.4375 -2.148438 C 3.472656 -2.53125 3.734375 -3.039062 3.859375 -3.265625 C 4.03125 -3.632812 4.226562 -4.050781 4.453125 -4.398438 C 4.871094 -5.027344 5.777344 -5.605469 5.5 -6.476562 C 5.253906 -7.296875 4.609375 -7.316406 4.101562 -6.84375 C 3.859375 -6.617188 1.78125 -3.964844 1.832031 -3.929688 C 1.832031 -3.929688 2.007812 -4.136719 2.234375 -4.433594 L 1.203125 -2.933594 C 1.1875 -2.933594 1.378906 -3.230469 1.363281 -3.246094 C 1.34375 -3.265625 1.222656 -3.144531 1.203125 -3.074219 C 1.238281 -3.4375 1.363281 -3.804688 1.398438 -4.171875 C 1.414062 -4.3125 1.398438 -4.417969 1.433594 -4.558594 C 1.5 -4.785156 1.570312 -5.027344 1.675781 -5.21875 C 1.746094 -5.359375 1.886719 -5.480469 1.921875 -5.621094 C 1.992188 -5.847656 1.972656 -5.9375 2.128906 -6.128906 C 2.269531 -6.300781 2.480469 -6.476562 2.601562 -6.632812 C 2.898438 -7.070312 2.390625 -7.367188 2.113281 -7.421875 C 1.886719 -7.453125 1.660156 -7.472656 1.449219 -7.351562 C 1.222656 -7.210938 1.273438 -7.089844 1.222656 -6.894531 C 1.167969 -6.652344 0.996094 -6.371094 0.90625 -6.144531 C 0.769531 -5.777344 0.644531 -5.414062 0.523438 -5.046875 C 0.382812 -4.679688 0.246094 -4.328125 0.140625 -3.964844 C 0.0507812 -3.667969 0.0703125 -3.386719 0.0351562 -3.109375 C 0 -2.792969 -0.0507812 -2.582031 0.105469 -2.304688 C 0.28125 -2.007812 0.75 -1.554688 1.066406 -1.9375 L 1.136719 -1.796875 C 1.433594 -2.445312 1.886719 -3.019531 2.253906 -3.648438 C 2.410156 -3.929688 2.6875 -4.121094 2.914062 -4.417969 C 3.230469 -4.835938 3.507812 -5.253906 3.859375 -5.65625 C 3.804688 -5.570312 3.578125 -5.167969 3.597656 -5.152344 C 3.632812 -5.167969 3.648438 -5.203125 3.683594 -5.238281 L 3.4375 -4.75 C 3.421875 -4.765625 3.507812 -4.886719 3.472656 -4.886719 C 3.351562 -4.921875 2.984375 -3.945312 2.949219 -3.859375 C 2.828125 -3.472656 2.8125 -3.125 2.777344 -2.722656 C 2.757812 -2.53125 2.722656 -2.339844 2.722656 -2.148438 C 2.722656 -1.957031 2.742188 -1.761719 2.828125 -1.570312 C 2.878906 -1.464844 2.949219 -1.328125 3.039062 -1.238281 C 3.054688 -1.238281 3.246094 -1.066406 3.160156 -1.203125 L 3.265625 -1.101562 L 3.210938 -1.136719 C 3.195312 -1.046875 3.839844 -0.699219 3.945312 -0.664062 C 4.433594 -0.507812 4.957031 -1.066406 5.273438 -1.398438 C 5.691406 -1.851562 6.039062 -2.375 6.425781 -2.863281 C 6.632812 -3.144531 7.296875 -3.734375 7.226562 -4.15625 Z M 7.226562 -4.15625 "/></g></g></g><g fill="#545454" fill-opacity="1"><g transform="translate(103.078411, 23.412516)"><g><path d="M 4.574219 -4.296875 C 4.539062 -4.523438 4.296875 -4.453125 4.171875 -4.363281 C 4.015625 -4.261719 3.144531 -3.109375 3.210938 -3.019531 C 3.265625 -3.019531 3.300781 -3.019531 3.335938 -3.054688 C 3.089844 -2.757812 2.636719 -2.425781 2.304688 -2.164062 C 2.113281 -2.007812 1.640625 -1.570312 1.363281 -1.710938 C 0.769531 -2.007812 1.972656 -4.101562 1.921875 -4.121094 C 1.867188 -4.136719 1.433594 -3.160156 1.34375 -2.933594 C 1.554688 -3.542969 1.832031 -4.15625 2.164062 -4.695312 C 2.148438 -4.644531 2.09375 -4.558594 2.128906 -4.558594 C 2.164062 -4.539062 2.425781 -4.90625 2.375 -4.941406 C 2.355469 -4.941406 2.320312 -4.941406 2.304688 -4.921875 C 2.355469 -4.976562 2.445312 -4.992188 2.445312 -5.097656 C 2.445312 -5.273438 2.042969 -5.445312 1.902344 -5.5 C 1.570312 -5.640625 1.238281 -5.675781 0.976562 -5.5 C 0.628906 -5.289062 0.558594 -4.871094 0.417969 -4.503906 C 0.382812 -4.398438 0.0507812 -3.160156 0.121094 -3.144531 C 0.15625 -3.160156 0.15625 -3.175781 0.175781 -3.210938 L 0.121094 -2.898438 C 0.105469 -2.898438 0.140625 -2.984375 0.105469 -2.984375 C -0.0351562 -2.984375 0 -2.355469 0.015625 -2.269531 C 0.0859375 -1.957031 0.332031 -1.726562 0.523438 -1.464844 C 0.628906 -1.308594 0.734375 -1.152344 0.890625 -1.046875 C 1.101562 -0.890625 0.960938 -1.046875 1.101562 -0.976562 L 1.066406 -0.976562 C 1.046875 -0.871094 1.710938 -0.699219 1.851562 -0.714844 C 2.460938 -0.855469 2.898438 -1.605469 3.246094 -2.078125 C 3.578125 -2.496094 3.859375 -2.914062 4.15625 -3.351562 C 4.328125 -3.578125 4.644531 -3.964844 4.574219 -4.296875 Z M 1.519531 -6.496094 C 1.554688 -6.441406 1.5 -6.371094 1.625 -6.300781 C 1.746094 -6.25 1.816406 -6.320312 1.921875 -6.355469 C 2.128906 -6.441406 2.289062 -6.667969 2.445312 -6.808594 C 2.496094 -6.84375 2.390625 -6.828125 2.390625 -6.828125 C 2.617188 -7.035156 2.425781 -6.792969 2.636719 -6.914062 C 2.847656 -7.054688 2.878906 -7.28125 3.054688 -7.472656 C 2.847656 -7.386719 2.6875 -7.261719 2.550781 -7.089844 C 2.375 -6.863281 2.253906 -6.757812 2.058594 -6.632812 C 2.269531 -6.792969 2.375 -6.949219 2.550781 -7.226562 C 2.601562 -7.28125 2.652344 -7.316406 2.722656 -7.351562 C 2.671875 -7.402344 2.671875 -7.453125 2.742188 -7.507812 C 2.792969 -7.59375 2.898438 -7.628906 2.949219 -7.71875 C 3.039062 -7.839844 3.019531 -7.996094 3.125 -8.117188 C 3.210938 -8.1875 3.335938 -8.242188 3.40625 -8.308594 C 3.5625 -8.449219 3.734375 -8.710938 3.667969 -8.9375 C 3.597656 -9.148438 3.421875 -9.410156 3.230469 -9.53125 C 3.003906 -9.65625 2.6875 -9.707031 2.445312 -9.601562 C 2.390625 -9.585938 2.183594 -9.53125 2.253906 -9.460938 C 2.269531 -9.429688 2.289062 -9.429688 2.320312 -9.429688 C 2.164062 -9.304688 1.902344 -9.097656 2.269531 -8.957031 C 2.234375 -8.921875 2.269531 -8.765625 2.269531 -8.746094 C 2.253906 -8.625 2.007812 -7.980469 1.851562 -7.664062 L 2.058594 -7.980469 C 1.9375 -7.71875 1.796875 -7.472656 1.640625 -7.261719 C 1.746094 -7.488281 1.535156 -7.226562 1.535156 -7.175781 C 1.34375 -7.261719 1.398438 -6.722656 1.414062 -6.667969 C 1.414062 -6.652344 1.519531 -6.496094 1.519531 -6.496094 Z M 1.1875 -2.339844 L 1.1875 -2.320312 L 1.152344 -2.21875 L 1.1875 -2.355469 C 1.203125 -2.375 1.203125 -2.375 1.1875 -2.339844 Z M 1.761719 -7.523438 C 1.761719 -7.523438 1.796875 -7.558594 1.832031 -7.628906 Z M 1.589844 -7.191406 C 1.589844 -7.175781 1.589844 -7.175781 1.570312 -7.160156 C 1.570312 -7.160156 1.570312 -7.175781 1.554688 -7.175781 C 1.570312 -7.175781 1.570312 -7.175781 1.589844 -7.191406 Z M 1.589844 -7.191406 "/></g></g></g><g fill="#545454" fill-opacity="1"><g transform="translate(106.377396, 23.412516)"><g><path d="M 6.320312 -3.230469 C 6.476562 -3.457031 7.105469 -4.121094 6.84375 -4.417969 C 6.496094 -4.765625 5.585938 -3.316406 5.445312 -3.144531 C 5.167969 -2.777344 4.871094 -2.425781 4.589844 -2.078125 C 4.433594 -1.886719 4.277344 -1.695312 4.101562 -1.519531 C 4.066406 -1.484375 3.734375 -1.066406 3.769531 -1.066406 C 3.824219 -1.082031 3.875 -1.117188 3.929688 -1.152344 C 3.632812 -0.839844 3.230469 -0.558594 2.863281 -0.28125 C 2.617188 -0.105469 2.148438 0.28125 1.851562 0.0703125 C 1.726562 0 1.695312 -0.175781 1.660156 -0.296875 C 1.535156 -0.839844 1.625 -1.484375 1.710938 -2.042969 C 1.902344 -3.210938 2.289062 -4.363281 2.757812 -5.464844 C 2.984375 -5.972656 3.210938 -6.476562 3.613281 -6.863281 C 3.648438 -6.894531 3.71875 -6.828125 3.734375 -6.84375 C 3.769531 -6.863281 3.632812 -6.914062 3.613281 -6.894531 C 3.421875 -6.792969 3.300781 -6.582031 3.195312 -6.390625 C 2.878906 -5.882812 2.636719 -5.324219 2.425781 -4.765625 C 2.582031 -5.203125 2.757812 -5.640625 2.96875 -6.074219 C 3.089844 -6.300781 3.230469 -6.667969 3.457031 -6.84375 C 4.050781 -7.316406 3.824219 -5.761719 3.753906 -5.535156 C 3.753906 -5.550781 3.824219 -5.9375 3.804688 -5.9375 C 3.769531 -5.9375 3.527344 -5.046875 3.527344 -5.046875 L 3.613281 -5.117188 C 3.527344 -4.976562 3.351562 -4.871094 3.578125 -4.714844 C 3.859375 -4.523438 4.398438 -4.855469 4.523438 -5.097656 C 4.644531 -5.359375 4.679688 -5.710938 4.695312 -5.972656 C 4.730469 -6.425781 4.609375 -6.6875 4.453125 -7.035156 C 4.277344 -7.402344 4.121094 -7.628906 3.648438 -7.699219 C 3.265625 -7.75 2.914062 -7.59375 2.617188 -7.367188 C 2.183594 -7.054688 1.851562 -6.652344 1.570312 -6.199219 C 1.5 -6.074219 0.871094 -4.800781 0.890625 -4.785156 L 0.960938 -4.871094 C 0.871094 -4.679688 0.820312 -4.488281 0.75 -4.3125 C 0.734375 -4.3125 0.785156 -4.46875 0.769531 -4.46875 C 0.664062 -4.488281 0.347656 -3.527344 0.332031 -3.4375 C 0.210938 -3.074219 0.121094 -2.707031 0.105469 -2.320312 C 0.0859375 -1.902344 0.015625 -1.484375 0 -1.046875 C 0 -0.820312 0 -0.574219 0.0351562 -0.347656 C 0.0351562 -0.28125 0.175781 0.0859375 0.175781 -0.015625 L 0.261719 0.28125 C 0.246094 0.261719 0.175781 0.0859375 0.175781 0.0859375 C 0.0859375 0.191406 0.558594 0.871094 0.664062 0.976562 C 0.804688 1.136719 1.011719 1.203125 1.222656 1.238281 C 1.921875 1.328125 2.582031 0.925781 3.089844 0.507812 C 3.964844 -0.226562 4.820312 -1.136719 5.464844 -2.078125 C 5.726562 -2.480469 6.023438 -2.847656 6.320312 -3.230469 Z M 1.203125 -4.503906 C 1.167969 -4.328125 1.117188 -4.136719 1.046875 -3.980469 C 0.996094 -3.859375 0.839844 -3.753906 0.820312 -3.667969 C 0.855469 -3.964844 1.082031 -4.261719 1.222656 -4.589844 C 1.222656 -4.558594 1.203125 -4.523438 1.203125 -4.503906 Z M 0.558594 -2.460938 C 0.488281 -2.339844 0.488281 -2.113281 0.488281 -1.921875 C 0.472656 -2.128906 0.472656 -2.355469 0.542969 -2.566406 C 0.542969 -2.566406 0.59375 -2.496094 0.558594 -2.460938 Z M 1.816406 -2.878906 C 1.886719 -3.160156 1.972656 -3.4375 2.058594 -3.71875 Z M 0.59375 -2.792969 C 0.574219 -2.742188 0.542969 -2.671875 0.542969 -2.636719 C 0.542969 -2.722656 0.542969 -2.8125 0.628906 -2.847656 Z M 2.128906 -3.929688 C 2.113281 -3.910156 2.113281 -3.910156 2.113281 -3.894531 C 2.113281 -3.929688 2.113281 -3.964844 2.128906 -4 Z M 2.128906 -3.929688 "/></g></g></g></svg>